<svg width="651" height="329" viewBox="0 0 651 329" fill="none" xmlns="http://www.w3.org/2000/svg">
<g clip-path="url(#clip0_2716_2)">
<path d="M577.88 174.62V209.56H520.53H519.35V174.62H465.28V209.56H166.49V174.62H126.32V209.56H0V295.51H398.28V328.34H438.69V295.51H650.17V174.62H577.88Z" fill="#00478A"/>
<path d="M391.79 8.42004H257.54V142.67H391.79V8.42004Z" fill="white"/>
<path d="M249 0V151.25H400.25V0H249ZM391.79 142.67H257.54V8.42H391.79V142.67Z" fill="#00478A"/>
<path d="M268.35 18.86H381.35V132.19C381.35 132.19 267.93 18.44 268.35 18.86Z" fill="#D10A10"/>
<path d="M641.54 183.22H619.16V287.24H641.54V183.22Z" fill="white"/>
<path d="M609.08 218.19H586.7V287.02H609.08V218.19Z" fill="white"/>
<path d="M609.02 183.17H586.64V209.06H609.02V183.17Z" fill="white"/>
<path d="M569.46 218.14H528.06C519.29 218.14 519.53 226.68 519.53 226.68V233.76L519.51 250.88V278.67C519.63 287.47 527.93 286.91 527.93 286.91H577.84V271.31H542.68V271.29V260.69H577.88V254.08H577.9V226.57C577.9 217.56 569.46 218.14 569.46 218.14ZM554.73 244.11H542.71V233.86H554.73V244.11Z" fill="white"/>
<path d="M496.31 196.9V218.15H510.6V231.96H496.3V287.1H473.92V215.87H473.93L473.95 198.7V191.64C473.95 191.64 473.71 183.13 482.48 183.13H510.62V196.91H496.31V196.9Z" fill="white"/>
<path d="M465.15 226.06C464.76 217.72 456.75 218.24 456.75 218.24H406.8V319.77H430.13V287.07H456.63C464.67 287.07 465.13 279.91 465.15 278.71V226.06ZM441.47 271.27H430.16V233.88H441.47V271.27Z" fill="white"/>
<path d="M373.52 233.83V242.2H396.82V227.38C396.82 227.38 397.71 218.15 387.62 218.15H339.1V287.01H362.18L362.16 233.83H373.52Z" fill="white"/>
<path d="M329.04 271.34L329.07 254.47V226.4C328.95 217.6 320.64 218.16 320.64 218.16H279.23C270.46 218.16 270.7 226.7 270.7 226.7V233.78L270.68 251V278.54C270.68 287.56 279.11 286.98 279.11 286.98H320.52C329.29 286.98 329.04 278.44 329.04 278.44V271.35V271.34ZM305.34 271.19H294.03V233.8H305.34V271.19Z" fill="white"/>
<path d="M202.89 287H225.97L225.95 233.86H237.31V287H260.61V227.41C260.61 227.41 261.5 218.19 251.41 218.19H202.89V287Z" fill="white"/>
<path d="M192.66 227.46V286.98H169.36V233.91H158L158.02 286.98H134.94V218.25V182.92H157.96V218.25H183.45C193.54 218.25 192.65 227.46 192.65 227.46H192.66Z" fill="white"/>
<path d="M126.38 218.18C126.38 218.18 96.26 218.26 86.46 218.26C76.66 218.26 77.38 227.34 77.38 227.34V277.95C77.38 287.81 86.42 286.99 86.42 286.99H126.38V271.31H100.66V233.9V233.84H126.37V218.18H126.38Z" fill="white"/>
<path d="M67.22 218.19H16.95C8.59003 218.19 8.76003 226.38 8.76003 226.38V261.01H44.09V271.4H8.80003V287.01H57.89C67.47 287.01 67.18 278.16 67.18 277.72V244.39H32.05V241.09V234.01H67.22V218.2V218.19Z" fill="white"/>
</g>
<defs>
<clipPath id="clip0_2716_2">
<rect width="650.17" height="328.34" fill="white"/>
</clipPath>
</defs>
</svg>
