<svg width="651" height="329" viewBox="0 0 651 329" fill="none" xmlns="http://www.w3.org/2000/svg">
<g clip-path="url(#clip0_2716_50)">
<path d="M249 0V151.25H400.25V0H249ZM391.79 142.67H257.54V8.42H391.79V142.67Z" fill="#00478A"/>
<path d="M268.35 18.86H381.35V132.19C381.35 132.19 267.93 18.44 268.35 18.86Z" fill="#D10A10"/>
<path d="M554.73 233.86H542.71V244.11H554.73V233.86Z" fill="#00478A"/>
<path d="M441.47 233.88H430.16V271.27H441.47V233.88Z" fill="#00478A"/>
<path d="M305.34 233.8H294.03V271.19H305.34V233.8Z" fill="#00478A"/>
<path d="M577.88 174.62V209.56H519.35V174.62H465.28V209.56H166.49V174.62H126.32V209.56H0V295.51H398.28V328.34H438.69V295.51H650.17V174.62H577.88ZM67.22 218.2V234.01H32.05V244.39H67.18V277.72C67.18 278.16 67.47 287.01 57.89 287.01H8.8V271.4H44.09V261.01H8.76V226.38C8.76 226.38 8.59 218.19 16.95 218.19H67.22V218.2ZM126.38 271.31V286.99H86.42C86.42 286.99 77.38 287.81 77.38 277.95V227.34C77.38 227.34 76.66 218.26 86.46 218.26C96.26 218.26 126.38 218.18 126.38 218.18H126.37V233.84H100.66V271.31H126.38ZM192.66 227.46V286.98H169.36V233.91H158L158.02 286.98H134.94V182.92H157.96V218.25H183.45C193.54 218.25 192.65 227.46 192.65 227.46H192.66ZM260.61 227.41V287H237.31V233.86H225.95L225.97 287H202.89V218.19H251.41C261.5 218.19 260.61 227.41 260.61 227.41ZM329.07 254.47L329.04 271.34V278.44C329.04 278.44 329.29 286.98 320.52 286.98H279.11C279.11 286.98 270.68 287.56 270.68 278.54V251L270.7 233.78V226.7C270.7 226.7 270.46 218.16 279.23 218.16H320.64C320.64 218.16 328.95 217.6 329.07 226.4V254.47ZM396.82 227.38V242.2H373.52V233.83H362.16L362.18 287.01H339.1V218.15H387.62C397.71 218.15 396.82 227.38 396.82 227.38ZM465.15 226.06V278.71C465.13 279.91 464.67 287.07 456.63 287.07H430.13V319.77H406.8V218.24H456.75C456.75 218.24 464.76 217.72 465.15 226.06ZM510.62 196.91H496.31V218.15H510.6V231.96H496.3V287.1H473.92V215.87H473.93L473.95 198.7V191.64C473.95 191.64 473.71 183.13 482.48 183.13H510.62V196.91ZM577.9 254.08H577.88V260.69H542.68V271.31H577.84V286.91H527.93C527.93 286.91 519.63 287.47 519.51 278.67V250.88L519.53 233.76V226.68C519.53 226.68 519.29 218.14 528.06 218.14H569.46C569.46 218.14 577.9 217.56 577.9 226.57V254.08ZM586.64 183.17H609.02V209.06H586.64V183.17ZM609.08 287.02H586.7V218.19H609.08V287.02ZM641.54 287.24H619.16V183.22H641.54V287.24Z" fill="#00478A"/>
</g>
<defs>
<clipPath id="clip0_2716_50">
<rect width="650.17" height="328.34" fill="white"/>
</clipPath>
</defs>
</svg>
