<svg width="654" height="360" viewBox="0 0 654 360" fill="none" xmlns="http://www.w3.org/2000/svg">
<g clip-path="url(#clip0_2716_127)">
<path d="M616.35 319.52V315.09H633.82V319.52H627.31V340.51H622.86V319.52H616.35Z" fill="#00478A"/>
<path d="M603.3 326.16H605.79C607.93 326.16 609.23 325.11 609.23 322.65C609.23 320.19 607.93 319.14 605.79 319.14H603.3V326.15V326.16ZM609.83 340.47L605.61 330.16H603.29V340.47H598.44V315.15H605.46C611.29 315.15 614.07 317.95 614.07 322.72C614.07 325.88 612.95 328.16 610.24 329.17L615.02 340.46H609.82L609.83 340.47Z" fill="#00478A"/>
<path d="M595.6 327.93C595.6 330.67 595.16 333.01 594.29 334.94C593.43 336.86 592.25 338.34 590.76 339.36C589.27 340.37 587.6 340.87 585.74 340.87C583.88 340.87 582.19 340.37 580.7 339.35C579.21 338.33 578.04 336.86 577.18 334.93C576.32 333.01 575.88 330.67 575.88 327.94C575.88 325.21 576.32 322.86 577.18 320.93C578.04 319 579.22 317.53 580.7 316.53C582.19 315.51 583.87 315.01 585.74 315.01C587.61 315.01 589.27 315.51 590.76 316.53C592.26 317.54 593.43 319.01 594.29 320.93C595.16 322.85 595.6 325.19 595.6 327.94V327.93ZM591.09 327.93C591.09 326.15 590.86 324.65 590.42 323.43C589.98 322.21 589.36 321.28 588.56 320.65C587.76 320.02 586.82 319.7 585.74 319.7C584.66 319.7 583.72 320.02 582.92 320.65C582.12 321.28 581.49 322.2 581.05 323.43C580.61 324.65 580.4 326.15 580.4 327.93C580.4 329.71 580.62 331.21 581.05 332.43C581.5 333.65 582.12 334.58 582.92 335.21C583.72 335.84 584.66 336.16 585.74 336.16C586.82 336.16 587.76 335.84 588.56 335.21C589.36 334.58 589.99 333.66 590.42 332.43C590.87 331.21 591.09 329.71 591.09 327.93Z" fill="#00478A"/>
<path d="M557.89 340.52V315.1H566.28C567.89 315.1 569.27 315.47 570.4 316.21C571.54 316.94 572.4 317.95 573 319.25C573.6 320.54 573.9 322.03 573.9 323.72C573.9 325.41 573.59 326.9 572.99 328.19C572.39 329.48 571.5 330.49 570.34 331.21C569.19 331.93 567.8 332.29 566.16 332.29H560.81V327.98H565.43C566.3 327.98 567.01 327.8 567.57 327.45C568.14 327.08 568.56 326.59 568.84 325.95C569.12 325.3 569.27 324.56 569.27 323.73C569.27 322.9 569.13 322.15 568.84 321.52C568.56 320.88 568.14 320.39 567.57 320.04C567 319.68 566.28 319.51 565.41 319.51H562.38V340.54H557.88V340.52H557.89Z" fill="#00478A"/>
<path d="M550.66 322.69C550.58 321.71 550.23 320.94 549.61 320.4C548.99 319.86 548.14 319.58 547.08 319.58C546.36 319.58 545.75 319.7 545.25 319.94C544.75 320.18 544.37 320.51 544.11 320.93C543.85 321.35 543.73 321.84 543.73 322.37C543.73 322.82 543.8 323.21 543.97 323.54C544.15 323.87 544.39 324.16 544.7 324.41C545.01 324.65 545.36 324.85 545.76 325.03C546.16 325.2 546.6 325.35 547.05 325.47L548.93 326.01C549.85 326.26 550.68 326.58 551.45 326.98C552.22 327.38 552.88 327.89 553.44 328.49C554 329.08 554.43 329.79 554.74 330.59C555.06 331.4 555.21 332.32 555.22 333.37C555.22 334.91 554.89 336.23 554.24 337.36C553.6 338.47 552.67 339.35 551.45 339.96C550.24 340.57 548.79 340.88 547.08 340.88C545.37 340.88 543.92 340.57 542.66 339.95C541.41 339.33 540.43 338.41 539.74 337.2C539.04 335.98 538.68 334.46 538.65 332.66H542.93C542.98 333.5 543.18 334.2 543.53 334.77C543.89 335.32 544.38 335.74 544.97 336.03C545.58 336.31 546.26 336.44 547.03 336.44C547.8 336.44 548.43 336.31 548.98 336.05C549.54 335.79 549.97 335.43 550.28 334.96C550.59 334.5 550.74 333.97 550.74 333.35C550.74 332.79 550.6 332.32 550.32 331.93C550.04 331.55 549.65 331.22 549.11 330.96C548.59 330.69 547.94 330.45 547.18 330.23L544.9 329.54C543.14 329.03 541.74 328.22 540.71 327.13C539.69 326.04 539.18 324.57 539.18 322.72C539.18 321.2 539.51 319.88 540.19 318.75C540.88 317.62 541.82 316.73 543.03 316.1C544.24 315.47 545.59 315.14 547.12 315.14C548.65 315.14 550.04 315.46 551.19 316.1C552.35 316.74 553.27 317.62 553.91 318.75C554.55 319.88 554.89 321.19 554.91 322.69H550.67H550.69H550.66Z" fill="#00478A"/>
<path d="M519.1 340.46V315.14H524.4L531.15 330.15H531.22V315.14H535.65V340.46H531.01L523.6 324.12H523.53V340.46H519.1Z" fill="#00478A"/>
<path d="M504.78 330.86H509.6L507.25 320.62H507.18L504.79 330.86H504.78ZM497.86 340.47L504.15 315.15H510.37L516.48 340.47H511.84L510.61 335.14H503.9L502.53 340.47H497.86Z" fill="#00478A"/>
<path d="M483.57 326.16H486.06C488.2 326.16 489.5 325.11 489.5 322.65C489.5 320.19 488.2 319.14 486.06 319.14H483.57V326.15V326.16ZM490.11 340.46L485.89 330.15H483.57V340.46H478.72V315.14H485.74C491.57 315.14 494.35 317.94 494.35 322.71C494.35 325.87 493.23 328.15 490.52 329.16L495.3 340.45H490.1H490.11V340.46Z" fill="#00478A"/>
<path d="M458.7 319.52V315.09H476.17V319.52H469.66V340.51H465.21V319.52H458.7Z" fill="#00478A"/>
<path d="M645.35 315V352.16H458.7V359.77H652.97V315H645.35Z" fill="#00478A"/>
<path d="M557.16 235.89H545.14V246.14H557.16V235.89Z" fill="#00478A"/>
<path d="M443.9 235.91H432.59V273.3H443.9V235.91Z" fill="#00478A"/>
<path d="M307.77 235.83H296.46V273.22H307.77V235.83Z" fill="#00478A"/>
<path d="M580.31 176.65V211.59H521.78V176.65H467.71V211.59H168.92V176.65H128.75V211.59H2.43005V297.54H400.71V330.37H441.12V297.54H652.6V176.65H580.31ZM69.6501 220.23V236.04H34.4801V246.42H69.6101V279.75C69.6101 280.19 69.9001 289.04 60.3201 289.04H11.2301V273.43H46.5201V263.04H11.1901V228.41C11.1901 228.41 11.0201 220.22 19.3801 220.22H69.6501V220.23ZM128.81 273.34V289.02H88.8501C88.8501 289.02 79.8101 289.84 79.8101 279.98V229.37C79.8101 229.37 79.09 220.29 88.8901 220.29C98.6901 220.29 128.58 220.21 128.8 220.21V235.87H103.09V273.34H128.81ZM195.09 229.49V289.01H171.79V235.94H160.43L160.45 289.01H137.37V184.95H160.39V220.28H185.88C195.97 220.28 195.08 229.49 195.08 229.49H195.09ZM263.04 229.44V289.03H239.74V235.89H228.38L228.4 289.03H205.32V220.22H253.84C263.93 220.22 263.04 229.44 263.04 229.44ZM331.5 256.5L331.47 273.37V280.47C331.47 280.47 331.72 289.01 322.95 289.01H281.54C281.54 289.01 273.11 289.59 273.11 280.57V253.03L273.13 235.81V228.73C273.13 228.73 272.89 220.19 281.66 220.19H323.07C323.07 220.19 331.38 219.63 331.5 228.43V256.5ZM399.25 229.41V244.23H375.95V235.86H364.59L364.61 289.04H341.53V220.18H390.05C400.14 220.18 399.25 229.41 399.25 229.41ZM467.58 228.09V280.74C467.56 281.94 467.1 289.1 459.06 289.1H432.56V321.8H409.23V220.27H459.18C459.18 220.27 467.19 219.75 467.58 228.09ZM513.05 198.94H498.74V220.18H513.03V233.99H498.73V289.13H476.35V217.9H476.36L476.38 200.73V193.67C476.38 193.67 476.14 185.16 484.91 185.16H513.05V198.94ZM580.33 256.11H580.31V262.72H545.11V273.34H580.27V288.94H530.36C530.36 288.94 522.06 289.5 521.94 280.7V252.91L521.96 235.79V228.71C521.96 228.71 521.72 220.17 530.49 220.17H571.89C571.89 220.17 580.33 219.59 580.33 228.6V256.11ZM589.07 185.2H611.45V211.09H589.07V185.2ZM611.51 289.05H589.13V220.22H611.51V289.05ZM643.97 289.27H621.59V185.25H643.97V289.27Z" fill="#00478A"/>
<path d="M251.43 2.03V153.28H402.68V2.03H251.43ZM394.22 144.7H259.97V10.45H394.22V144.7Z" fill="#00478A"/>
<path d="M270.78 20.89H383.78V134.22C383.78 134.22 270.36 20.47 270.78 20.89Z" fill="#D10A10"/>
</g>
<defs>
<clipPath id="clip0_2716_127">
<rect width="653.77" height="359.87" fill="white"/>
</clipPath>
</defs>
</svg>
